<svg version="1.0" xmlns="http://www.w3.org/2000/svg"
 width="118" height="42" viewBox="0 0 1609.000000 1361.000000"
 preserveAspectRatio="xMidYMid meet">

<g transform="translate(0.000000,1361.000000) scale(0.100000,-0.100000)"
fill="#000000" stroke="none">
<path d="M14763 13586 c-45 -11 -88 -27 -95 -33 -6 -7 -35 -13 -62 -13 -50 -1
-86 -17 -86 -39 0 -6 -17 -11 -41 -11 -26 0 -50 -7 -66 -20 -14 -11 -35 -20
-47 -20 -11 0 -43 -14 -71 -30 -27 -16 -69 -39 -92 -50 -38 -20 -43 -26 -43
-56 0 -32 -2 -34 -34 -34 -50 0 -81 -23 -261 -200 -37 -35 -105 -125 -105
-137 0 -7 -4 -13 -10 -13 -5 0 -10 -7 -10 -15 0 -8 -9 -19 -19 -25 -11 -5 -34
-39 -51 -75 -18 -36 -39 -72 -47 -80 -8 -9 -21 -39 -29 -68 -7 -28 -18 -53
-24 -55 -5 -2 -10 -14 -10 -26 0 -12 -4 -26 -9 -31 -5 -6 -11 -43 -13 -83 -2
-44 -9 -76 -16 -81 -8 -5 -14 -39 -17 -91 -3 -45 -8 -87 -13 -94 -4 -6 -6 -33
-4 -61 13 -186 13 -205 3 -205 -14 0 -14 -47 -1 -55 6 -3 10 -17 10 -30 0 -13
7 -30 15 -38 18 -18 45 -93 45 -125 0 -14 13 -35 30 -50 19 -17 30 -36 30 -53
0 -15 8 -42 17 -61 31 -62 33 -68 33 -91 0 -13 15 -44 33 -68 18 -24 39 -60
47 -79 8 -19 16 -37 19 -40 17 -15 71 -90 71 -99 0 -5 6 -14 13 -18 6 -4 20
-24 30 -43 33 -62 52 -95 57 -100 15 -13 100 -149 100 -159 0 -6 16 -29 36
-51 20 -22 33 -40 29 -40 -4 0 -3 -6 3 -12 5 -7 13 -34 16 -60 4 -29 12 -48
20 -48 24 0 46 -36 46 -76 0 -22 5 -45 12 -52 8 -8 11 -65 10 -189 l-2 -178
-35 -68 c-18 -38 -39 -74 -44 -81 -6 -7 -24 -38 -39 -69 -19 -38 -44 -68 -73
-88 -24 -18 -63 -49 -86 -70 -24 -22 -49 -39 -56 -39 -7 0 -23 -13 -34 -29
-12 -15 -41 -38 -65 -51 -23 -12 -49 -31 -56 -41 -7 -10 -19 -19 -26 -19 -8 0
-19 -6 -25 -14 -12 -14 -114 -66 -131 -66 -13 0 -60 -45 -60 -59 0 -6 -9 -11
-21 -11 -11 0 -57 -22 -102 -50 -45 -27 -86 -50 -91 -50 -5 0 -36 -20 -67 -45
-32 -25 -62 -45 -68 -45 -6 0 -11 -4 -11 -8 0 -9 -74 -59 -127 -86 -17 -9 -38
-25 -46 -36 -7 -11 -39 -31 -70 -44 -30 -14 -59 -31 -64 -39 -4 -8 -47 -42
-95 -76 -48 -34 -104 -82 -125 -106 -20 -25 -45 -48 -55 -51 -10 -3 -25 -18
-34 -34 -10 -16 -28 -34 -40 -41 -13 -6 -35 -31 -50 -55 -16 -24 -36 -46 -46
-49 -9 -4 -51 -38 -91 -78 -41 -40 -92 -88 -113 -108 -49 -46 -110 -123 -138
-176 -12 -22 -34 -55 -49 -73 -15 -17 -27 -37 -27 -44 0 -7 -15 -33 -34 -57
-19 -24 -46 -69 -62 -99 -15 -30 -33 -62 -39 -70 -21 -26 -145 -270 -145 -285
0 -8 -13 -43 -29 -77 -78 -170 -114 -265 -145 -383 -7 -27 -20 -64 -29 -82 -9
-18 -17 -41 -17 -52 0 -12 -11 -53 -24 -93 -13 -40 -37 -113 -51 -163 -15 -49
-31 -99 -36 -110 -36 -91 -59 -156 -59 -169 0 -9 -9 -24 -20 -33 -12 -11 -20
-30 -20 -50 0 -18 -5 -45 -11 -60 -24 -59 -27 -70 -37 -128 -6 -33 -21 -94
-33 -135 -12 -41 -23 -101 -24 -133 -2 -47 -7 -63 -27 -85 -14 -15 -29 -43
-33 -62 -4 -19 -14 -44 -21 -55 -8 -11 -14 -27 -14 -36 0 -9 -11 -33 -25 -53
-14 -20 -28 -49 -31 -63 -4 -15 -21 -45 -38 -68 -69 -91 -236 -364 -236 -385
0 -7 -8 -24 -18 -38 -10 -15 -26 -45 -36 -67 -45 -101 -79 -162 -99 -180 -12
-11 -28 -33 -35 -48 -7 -16 -30 -50 -52 -75 -21 -26 -45 -58 -52 -72 -24 -47
-83 -117 -121 -146 -21 -15 -49 -47 -62 -70 -17 -29 -38 -48 -65 -60 -22 -10
-40 -23 -40 -30 0 -16 -117 -117 -160 -137 -19 -9 -44 -30 -55 -46 -11 -17
-31 -35 -45 -40 -14 -5 -38 -21 -54 -35 -16 -14 -38 -28 -49 -32 -12 -4 -33
-18 -47 -33 -15 -14 -40 -33 -56 -40 -16 -8 -45 -26 -64 -40 -19 -15 -51 -35
-71 -46 -63 -35 -100 -59 -137 -88 -21 -16 -50 -36 -66 -44 -16 -8 -38 -23
-48 -33 -11 -10 -35 -21 -53 -24 -18 -4 -39 -13 -46 -22 -7 -8 -41 -28 -75
-45 -35 -16 -65 -33 -68 -38 -4 -5 -27 -20 -54 -32 -63 -31 -111 -63 -144 -96
-15 -15 -30 -24 -34 -21 -3 4 -32 -6 -63 -21 -31 -16 -72 -32 -91 -36 -19 -4
-55 -16 -80 -27 -25 -11 -76 -24 -115 -30 -103 -15 -265 -21 -278 -10 -7 5
-28 12 -48 16 -43 8 -113 40 -155 72 -17 13 -51 34 -74 47 -24 13 -51 35 -59
49 -9 15 -32 39 -51 55 -19 15 -46 40 -60 55 -25 27 -159 118 -173 118 -4 0
-33 18 -65 39 -31 22 -77 47 -102 56 -25 9 -57 23 -71 31 -15 7 -52 15 -82 17
-34 2 -63 10 -74 19 -23 21 -67 38 -99 38 -34 0 -105 73 -136 141 -14 30 -37
69 -52 88 -14 19 -26 42 -26 51 0 8 -13 31 -29 50 -15 19 -40 58 -54 85 -14
28 -37 61 -52 74 -15 14 -25 34 -25 50 0 17 -11 38 -31 57 -17 16 -39 48 -50
71 -10 23 -28 48 -40 57 -22 15 -49 60 -49 80 0 7 -18 30 -40 51 -22 21 -40
47 -40 57 0 10 -16 32 -36 50 -19 18 -46 55 -60 83 -14 27 -44 70 -67 94 -127
134 -144 142 -183 84 -17 -25 -20 -42 -16 -81 3 -36 0 -56 -13 -76 -14 -21
-16 -40 -11 -103 8 -93 8 -85 -4 -243 -12 -173 -24 -254 -44 -281 -9 -13 -16
-36 -16 -52 0 -63 -32 -141 -75 -184 -40 -41 -45 -43 -102 -43 -63 0 -117 -14
-144 -36 -10 -9 -40 -14 -81 -14 -57 0 -125 -15 -183 -40 -11 -5 -39 -14 -63
-20 -26 -7 -54 -24 -73 -44 -19 -22 -44 -37 -67 -41 -20 -4 -51 -18 -69 -31
-17 -13 -36 -24 -41 -24 -5 0 -18 -8 -29 -18 -12 -9 -41 -31 -66 -49 -25 -17
-51 -44 -59 -59 -7 -16 -23 -33 -35 -40 -31 -15 -143 -131 -164 -170 -10 -18
-29 -44 -43 -59 -14 -15 -26 -33 -26 -40 0 -7 -6 -18 -14 -24 -23 -19 -66
-108 -66 -135 0 -14 -13 -40 -30 -58 -16 -18 -30 -40 -30 -50 0 -9 -16 -30
-36 -45 -20 -15 -46 -38 -57 -50 -11 -13 -26 -23 -32 -23 -6 0 -26 -13 -44
-29 -18 -16 -47 -35 -64 -42 -18 -7 -48 -25 -67 -39 -19 -15 -43 -29 -52 -33
-22 -8 -108 -124 -108 -146 0 -55 41 -346 49 -354 6 -6 11 -18 11 -26 0 -20
90 -200 105 -209 6 -4 24 -26 40 -49 15 -23 42 -54 60 -68 34 -25 61 -84 52
-110 -4 -8 -29 -16 -64 -20 -32 -4 -92 -16 -133 -27 -41 -11 -93 -23 -115 -25
-22 -3 -49 -12 -60 -19 -11 -8 -42 -14 -70 -14 -28 0 -59 -7 -69 -15 -12 -9
-43 -15 -75 -16 -31 0 -81 -5 -111 -9 -30 -5 -80 -13 -110 -16 -30 -4 -64 -13
-75 -20 -11 -8 -43 -14 -72 -14 -28 0 -54 -4 -57 -9 -3 -4 -33 -11 -66 -15
-33 -4 -72 -13 -87 -21 -16 -8 -43 -15 -61 -15 -18 0 -41 -4 -51 -9 -19 -10
-112 -27 -231 -41 -41 -5 -111 -20 -154 -34 -43 -14 -100 -26 -127 -26 -26 0
-51 -4 -54 -10 -3 -5 -21 -10 -39 -10 -19 0 -56 -6 -82 -14 -27 -8 -89 -20
-139 -26 -49 -7 -103 -16 -120 -22 -69 -21 -306 -54 -361 -49 -17 1 -48 -5
-69 -13 -43 -18 -126 -21 -142 -5 -10 10 -143 8 -218 -4 -29 -4 -181 12 -325
35 -36 6 -86 12 -111 13 -25 1 -55 8 -67 14 -11 6 -40 11 -64 11 -24 0 -50 6
-57 13 -9 9 -54 11 -168 9 -149 -2 -158 -4 -189 -27 -18 -14 -42 -25 -53 -25
-12 0 -21 -3 -21 -7 0 -5 -23 -34 -50 -66 -55 -64 -69 -100 -51 -129 9 -15 8
-18 -5 -18 -14 0 -16 -10 -12 -63 4 -66 22 -99 93 -172 28 -29 91 -65 113 -65
5 0 23 -7 38 -15 16 -8 36 -15 44 -15 9 0 20 -4 25 -9 6 -6 113 -12 240 -16
126 -3 232 -10 235 -15 3 -5 61 -10 128 -11 83 -1 128 -6 140 -15 14 -11 14
-13 2 -14 -8 0 -27 -15 -42 -34 -15 -18 -39 -37 -55 -41 -15 -3 -30 -10 -33
-14 -9 -12 -59 -41 -72 -41 -7 0 -26 -7 -43 -16 -16 -9 -55 -18 -85 -21 -30
-3 -59 -9 -65 -13 -16 -11 -148 -30 -295 -41 -165 -13 -340 -33 -360 -42 -8
-3 -36 -13 -62 -22 -30 -10 -66 -34 -98 -65 -47 -46 -50 -51 -50 -100 0 -43 5
-59 30 -90 17 -21 30 -42 30 -47 0 -16 63 -69 105 -88 22 -10 61 -22 88 -26
26 -4 54 -15 63 -23 8 -9 23 -16 33 -16 9 0 22 -5 28 -11 6 -6 37 -15 69 -20
33 -5 82 -14 109 -19 28 -5 87 -9 132 -9 45 -1 84 -5 87 -9 9 -15 163 -20 331
-12 126 6 173 12 223 30 47 16 67 19 75 11 15 -15 70 -14 85 2 9 8 62 13 175
15 89 1 171 7 182 12 20 9 131 17 340 26 178 7 255 12 340 24 44 6 109 13 145
15 75 6 212 29 228 39 6 4 69 11 139 16 70 5 182 15 248 21 66 6 149 12 185
14 36 1 85 5 110 9 25 3 161 8 303 11 142 3 267 10 277 15 10 6 43 10 74 10
30 0 65 4 78 9 13 4 81 11 153 15 71 4 134 11 139 16 6 6 32 10 58 10 56 0
186 19 209 30 8 4 28 6 43 3 15 -3 37 -1 49 5 33 16 93 24 174 22 42 -1 81 4
95 11 13 7 57 14 98 15 41 1 138 5 215 10 77 4 147 7 155 6 57 -9 350 -24 530
-27 131 -2 233 -8 260 -16 67 -19 347 -14 370 6 13 12 19 12 29 2 9 -9 141
-13 559 -15 301 -1 630 -2 732 -1 102 1 325 2 495 4 171 1 317 5 325 8 8 4 92
9 185 12 256 8 358 15 371 26 7 5 48 14 93 19 44 5 104 17 133 26 29 9 82 20
118 24 97 12 200 33 200 42 0 4 9 8 20 8 54 0 340 90 340 108 0 8 16 12 47 12
26 0 74 9 107 19 34 11 81 25 106 32 25 6 65 21 90 32 57 25 72 31 141 55 30
11 78 33 105 48 70 39 73 40 138 66 32 12 61 28 63 35 3 7 11 13 19 13 16 0
77 33 119 65 17 12 40 25 53 29 12 4 29 18 38 31 8 12 27 25 42 28 15 4 43 21
62 39 20 18 45 38 55 45 11 6 19 16 18 21 -1 6 11 14 28 17 20 5 40 20 57 46
15 21 35 38 45 39 10 0 49 30 87 67 37 38 83 82 102 99 18 17 50 52 71 77 21
26 43 47 48 47 5 0 40 31 77 69 37 38 85 78 108 89 22 12 54 36 70 54 29 33
122 98 140 98 6 0 30 20 54 45 24 25 48 45 52 45 4 0 22 16 41 35 19 19 39 35
44 35 11 0 89 69 197 173 34 33 79 73 101 90 22 17 60 52 85 77 25 25 54 52
65 62 11 9 45 44 75 77 30 34 61 61 69 61 7 0 39 26 71 58 31 31 80 77 107
102 96 87 159 148 183 179 14 17 30 31 35 31 6 0 31 20 55 45 24 25 48 45 53
45 4 0 25 16 45 36 20 20 46 40 57 45 11 5 38 20 60 34 44 27 72 30 128 14 41
-11 117 -73 117 -94 0 -7 4 -15 8 -17 11 -4 72 -127 72 -144 0 -8 5 -14 10
-14 6 0 10 -9 10 -20 0 -12 7 -34 15 -51 9 -16 17 -61 20 -100 2 -40 8 -76 14
-82 13 -13 15 -173 3 -181 -5 -3 -12 -42 -15 -87 -4 -45 -11 -87 -16 -93 -16
-19 -41 -99 -41 -132 0 -20 -9 -40 -24 -55 -13 -14 -27 -41 -31 -61 -4 -20
-20 -48 -36 -64 -19 -18 -29 -38 -29 -57 0 -17 -11 -45 -25 -63 -14 -18 -28
-48 -32 -66 -3 -18 -9 -35 -13 -38 -10 -8 -40 -77 -40 -93 0 -9 -4 -18 -9 -22
-6 -3 -13 -26 -17 -52 -4 -25 -17 -64 -30 -87 -13 -22 -24 -54 -24 -71 0 -16
-7 -41 -15 -55 -8 -14 -14 -36 -15 -49 0 -13 -8 -30 -17 -37 -22 -16 -105 -18
-120 -3 -6 6 -45 9 -104 6 -88 -4 -119 -9 -194 -36 -16 -6 -41 -13 -55 -15
-14 -3 -43 -21 -64 -41 -21 -19 -44 -35 -51 -35 -14 0 -45 -42 -45 -61 0 -7
-11 -26 -24 -43 -17 -23 -24 -48 -28 -93 -3 -41 -10 -69 -22 -82 -15 -16 -18
-32 -14 -76 4 -46 10 -61 39 -91 32 -33 106 -74 134 -74 8 0 16 6 18 13 3 7 6
5 6 -5 1 -15 11 -18 54 -18 30 0 57 -3 61 -7 11 -12 204 -14 211 -3 3 6 34 10
68 10 158 0 311 61 432 171 75 68 205 202 205 211 0 10 16 29 96 121 46 52
131 172 138 194 4 12 31 47 60 78 l54 56 89 -7 c58 -4 97 -3 110 4 18 10 32
35 88 152 7 14 15 42 18 62 3 20 14 49 25 65 11 15 28 53 37 83 10 30 23 66
30 80 7 14 16 41 20 60 8 35 11 42 37 95 17 32 33 101 48 205 13 91 26 148 37
162 6 7 13 38 16 68 3 30 15 77 26 103 12 27 21 69 21 95 0 39 16 88 49 152 5
9 12 30 16 49 4 18 13 44 21 59 8 15 14 32 14 38 0 16 20 52 60 109 19 28 41
59 48 70 19 31 79 157 87 185 4 14 22 57 40 95 36 76 51 161 65 345 5 63 11
129 14 145 3 17 8 68 10 115 3 47 12 153 21 235 9 83 15 171 14 198 -2 55 -2
98 4 397 3 184 1 229 -11 248 -9 14 -13 36 -9 60 3 20 -1 91 -9 157 -23 194
-23 260 -2 375 11 58 23 109 28 115 4 5 11 28 15 50 4 22 13 47 20 55 7 8 18
41 25 73 6 32 18 70 26 85 8 15 14 35 14 45 0 18 20 70 43 112 10 18 15 40 32
120 4 17 13 44 21 62 8 17 14 45 14 62 0 17 5 50 10 73 12 52 36 555 34 723
-1 66 -11 195 -23 287 -11 92 -21 186 -21 209 0 24 -5 59 -11 78 -7 20 -14 43
-16 51 -3 8 -7 48 -8 88 -2 41 -8 79 -13 85 -12 16 -29 88 -38 162 -3 33 -15
80 -24 105 -10 25 -25 84 -34 130 -9 49 -30 113 -49 151 -18 36 -44 93 -56
127 -13 34 -27 62 -31 62 -4 0 -12 19 -19 42 -7 22 -35 84 -62 136 -27 52 -49
100 -49 108 0 8 -4 14 -10 14 -5 0 -10 9 -10 19 0 10 -6 21 -14 24 -7 3 -16
21 -20 40 -4 19 -15 46 -25 58 -10 13 -24 42 -32 64 -7 22 -19 47 -25 55 -7 8
-16 29 -20 45 -4 17 -17 46 -29 65 -12 19 -26 46 -30 60 -4 14 -11 27 -14 30
-3 3 -17 25 -29 50 -13 25 -38 63 -57 83 -19 21 -35 43 -35 48 0 6 -11 25 -25
43 -14 18 -25 39 -25 47 0 8 -13 30 -30 49 -16 19 -29 40 -30 46 0 5 -13 23
-30 39 -16 16 -33 44 -36 62 -4 21 -17 41 -35 54 -16 11 -29 27 -29 35 0 8 -4
14 -10 14 -5 0 -10 8 -10 19 0 16 -73 176 -101 221 -5 8 -16 31 -25 50 -52
114 -77 159 -90 164 -8 3 -14 16 -14 29 0 13 -7 32 -15 43 -8 10 -15 27 -15
37 0 9 -11 23 -25 29 -14 6 -25 20 -25 30 0 10 -9 35 -20 55 -11 21 -20 45
-20 55 0 9 -4 19 -9 22 -5 3 -12 23 -16 43 -4 21 -10 43 -15 48 -4 6 -10 36
-13 69 -4 39 -13 66 -26 80 -12 12 -21 29 -21 37 0 8 -9 28 -20 44 -11 17 -20
36 -20 44 0 7 -13 29 -30 48 -16 18 -30 45 -30 58 0 13 -11 45 -25 71 -14 26
-25 56 -25 67 0 11 -20 53 -45 93 -25 39 -45 83 -45 96 0 13 -4 28 -9 34 -11
11 -29 104 -42 213 -5 47 -14 90 -20 97 -7 8 -6 14 1 19 7 4 11 42 10 103 -1
54 0 104 3 112 6 19 25 88 32 120 9 34 38 90 47 90 5 0 8 10 8 22 0 24 45 88
63 88 7 0 35 21 62 45 28 25 91 66 142 91 51 25 95 49 98 54 4 6 33 10 66 10
33 0 59 4 59 10 0 6 33 10 79 10 44 0 83 -4 86 -10 3 -5 19 -10 35 -10 41 0
207 -88 251 -132 20 -21 42 -38 48 -38 6 0 20 -13 33 -30 12 -16 28 -30 35
-30 8 0 13 -12 13 -30 0 -16 4 -30 10 -30 5 0 12 -16 16 -35 3 -19 12 -39 20
-46 8 -6 14 -19 14 -29 0 -9 9 -25 20 -35 10 -9 19 -20 19 -24 -2 -15 14 -51
23 -51 5 0 6 -5 3 -10 -3 -6 3 -37 15 -71 20 -55 21 -75 17 -202 -11 -298 30
-419 131 -389 43 13 71 40 135 134 60 86 84 141 90 202 3 27 9 51 13 55 27 19
35 62 32 169 -2 62 1 113 6 115 11 4 13 188 2 206 -12 18 -14 71 -4 78 13 7 9
80 -6 110 -20 38 -46 130 -46 159 0 12 -11 44 -25 70 -14 26 -25 54 -25 62 0
23 -90 202 -123 245 -19 24 -37 37 -53 37 -13 0 -24 3 -24 8 0 4 -15 21 -33
39 -115 114 -150 143 -170 143 -12 0 -33 7 -47 14 -60 34 -89 44 -160 56 -41
6 -97 16 -123 21 -88 17 -303 9 -394 -15z"/>
</g>
</svg>
